<svg width="14" height="14" viewBox="0 0 14 14" fill="none" xmlns="http://www.w3.org/2000/svg">
<g clip-path="url(#clip0_1_146)">
<path d="M11.6667 1.74999H11.0833V0.583328H9.91667V1.74999H4.08333V0.583328H2.91667V1.74999H2.33333C1.69167 1.74999 1.16667 2.275 1.16667 2.91666V12.25C1.16667 12.8917 1.69167 13.4167 2.33333 13.4167H11.6667C12.3083 13.4167 12.8333 12.8917 12.8333 12.25V2.91666C12.8333 2.275 12.3083 1.74999 11.6667 1.74999ZM11.6667 12.25H2.33333V4.66666H11.6667V12.25Z" fill="#1C4980"/>
<path fill-rule="evenodd" clip-rule="evenodd" d="M3.5 7C3.5 6.67783 3.76117 6.41666 4.08333 6.41666H5.83333C6.1555 6.41666 6.41667 6.67783 6.41667 7C6.41667 7.32216 6.1555 7.58333 5.83333 7.58333H4.08333C3.76117 7.58333 3.5 7.32216 3.5 7ZM7.58333 7C7.58333 6.67783 7.8445 6.41666 8.16667 6.41666H9.91667C10.2388 6.41666 10.5 6.67783 10.5 7C10.5 7.32216 10.2388 7.58333 9.91667 7.58333H8.16667C7.8445 7.58333 7.58333 7.32216 7.58333 7ZM3.5 9.33333C3.5 9.01116 3.76117 8.75 4.08333 8.75H5.83333C6.1555 8.75 6.41667 9.01116 6.41667 9.33333C6.41667 9.65549 6.1555 9.91666 5.83333 9.91666H4.08333C3.76117 9.91666 3.5 9.6555 3.5 9.33333ZM7.58333 9.33333C7.58333 9.01116 7.8445 8.75 8.16667 8.75H9.91667C10.2388 8.75 10.5 9.01116 10.5 9.33333C10.5 9.65549 10.2388 9.91666 9.91667 9.91666H8.16667C7.8445 9.91666 7.58333 9.6555 7.58333 9.33333Z" fill="#1C4980"/>
</g>
<defs>
<clipPath id="clip0_1_146">
<rect width="14" height="14" fill="white"/>
</clipPath>
</defs>
</svg>
