<svg width="14" height="14" viewBox="0 0 14 14" fill="none" xmlns="http://www.w3.org/2000/svg">
<g clip-path="url(#clip0_1_180)">
<path d="M11.6667 1.74999H11.0833V0.583328H9.91666V1.74999H4.08332V0.583328H2.91666V1.74999H2.33332C1.69166 1.74999 1.16666 2.275 1.16666 2.91666V12.25C1.16666 12.8917 1.69166 13.4167 2.33332 13.4167H11.6667C12.3083 13.4167 12.8333 12.8917 12.8333 12.25V2.91666C12.8333 2.275 12.3083 1.74999 11.6667 1.74999ZM11.6667 12.25H2.33332V4.66666H11.6667V12.25Z" fill="#1C4980"/>
<path fill-rule="evenodd" clip-rule="evenodd" d="M3.49999 7C3.49999 6.67783 3.76116 6.41666 4.08332 6.41666H5.83332C6.15549 6.41666 6.41666 6.67783 6.41666 7C6.41666 7.32216 6.15549 7.58333 5.83332 7.58333H4.08332C3.76116 7.58333 3.49999 7.32216 3.49999 7ZM7.58332 7C7.58332 6.67783 7.84449 6.41666 8.16666 6.41666H9.91666C10.2388 6.41666 10.5 6.67783 10.5 7C10.5 7.32216 10.2388 7.58333 9.91666 7.58333H8.16666C7.84449 7.58333 7.58332 7.32216 7.58332 7ZM3.49999 9.33333C3.49999 9.01116 3.76116 8.75 4.08332 8.75H5.83332C6.15549 8.75 6.41666 9.01116 6.41666 9.33333C6.41666 9.65549 6.15549 9.91666 5.83332 9.91666H4.08332C3.76116 9.91666 3.49999 9.6555 3.49999 9.33333ZM7.58332 9.33333C7.58332 9.01116 7.84449 8.75 8.16666 8.75H9.91666C10.2388 8.75 10.5 9.01116 10.5 9.33333C10.5 9.65549 10.2388 9.91666 9.91666 9.91666H8.16666C7.84449 9.91666 7.58332 9.6555 7.58332 9.33333Z" fill="#1C4980"/>
</g>
<defs>
<clipPath id="clip0_1_180">
<rect width="14" height="14" fill="white"/>
</clipPath>
</defs>
</svg>
