<svg width="23" height="11" viewBox="0 0 23 11" fill="none" xmlns="http://www.w3.org/2000/svg">
<path opacity="0.35" d="M0.996155 2.72458C0.996155 1.62768 1.88057 0.738464 2.97167 0.738464H18.1677C19.2588 0.738464 20.1432 1.62768 20.1432 2.72458V8.22458C20.1432 9.32144 19.2588 10.2107 18.1677 10.2107H2.97167C1.88057 10.2107 0.996155 9.32144 0.996155 8.22458V2.72458Z" stroke="black"/>
<path opacity="0.4" d="M21.504 3.64081V7.30747C22.2377 6.99693 22.7148 6.27451 22.7148 5.47414C22.7148 4.67377 22.2377 3.95136 21.504 3.64081Z" fill="black"/>
<path d="M2.35748 3.1218C2.35748 2.56491 2.80653 2.11346 3.36042 2.11346H17.7663C18.3202 2.11346 18.7692 2.56491 18.7692 3.1218V7.82735C18.7692 8.38424 18.3202 8.83569 17.7663 8.83569H3.36042C2.80653 8.83569 2.35748 8.38424 2.35748 7.82736V3.1218Z" fill="#F7CE45"/>
</svg>
