<svg width="40" height="40" viewBox="0 0 40 40" fill="none" xmlns="http://www.w3.org/2000/svg">
<rect width="40" height="40" rx="8" fill="#E5F1FC"/>
<mask id="mask0_1_116" style="mask-type:alpha" maskUnits="userSpaceOnUse" x="10" y="10" width="20" height="20">
<rect x="10" y="10" width="20" height="20" fill="#D9D9D9"/>
</mask>
<g mask="url(#mask0_1_116)">
<path d="M19.092 24.3362H15.8334C14.6338 24.3362 13.6112 23.9135 12.7657 23.068C11.9201 22.2225 11.4974 21.2 11.4974 20.0005C11.4974 18.801 11.9201 17.7784 12.7657 16.9326C13.6112 16.0869 14.6338 15.6641 15.8334 15.6641H19.092V17.5599H15.8356C15.1571 17.5599 14.5805 17.7972 14.1056 18.2716C13.6307 18.7461 13.3932 19.3223 13.3932 20.0001C13.3932 20.678 13.6307 21.2541 14.1056 21.7286C14.5805 22.2031 15.1571 22.4403 15.8356 22.4403H19.092V24.3362ZM16.5522 20.8733V19.1269H23.448V20.8733H16.5522ZM20.9082 24.3362V22.4403H24.1646C24.8431 22.4403 25.4197 22.2031 25.8946 21.7286C26.3695 21.2541 26.607 20.678 26.607 20.0001C26.607 19.3223 26.3695 18.7461 25.8946 18.2716C25.4197 17.7972 24.8431 17.5599 24.1646 17.5599H20.9082V15.6641H24.1668C25.3664 15.6641 26.389 16.0868 27.2345 16.9322C28.0801 17.7777 28.5028 18.8002 28.5028 19.9997C28.5028 21.1993 28.0801 22.2219 27.2345 23.0676C26.389 23.9133 25.3664 24.3362 24.1668 24.3362H20.9082Z" fill="#0073E6"/>
</g>
</svg>
