<svg width="20" height="20" viewBox="0 0 20 20" fill="none" xmlns="http://www.w3.org/2000/svg">
<g clip-path="url(#clip0_1_161)">
<path d="M10.0003 4.10614L7.6433 6.46316L8.82181 7.64168L11.1788 5.28465C12.1511 4.31238 13.7421 4.31238 14.7144 5.28465C15.6866 6.25692 15.6866 7.84792 14.7144 8.82019L12.3573 11.1772L13.5359 12.3557L15.8929 9.9987C17.5192 8.37235 17.5192 5.73249 15.8929 4.10614C14.2665 2.4798 11.6267 2.4798 10.0003 4.10614ZM11.1788 12.3557L8.82181 14.7127C7.84954 15.685 6.25855 15.685 5.28627 14.7127C4.314 13.7405 4.314 12.1495 5.28627 11.1772L7.6433 8.82019L6.46478 7.64168L4.10776 9.9987C2.48142 11.625 2.48142 14.2649 4.10776 15.8913C5.73411 17.5176 8.37397 17.5176 10.0003 15.8913L12.3573 13.5342L11.1788 12.3557ZM7.05404 11.7665L11.7681 7.05242L12.9466 8.23093L8.23255 12.945L7.05404 11.7665Z" fill="#1C4980"/>
</g>
<defs>
<clipPath id="clip0_1_161">
<rect width="20" height="20" fill="white"/>
</clipPath>
</defs>
</svg>
