<svg width="21" height="20" viewBox="0 0 21 20" fill="none" xmlns="http://www.w3.org/2000/svg">
<g clip-path="url(#clip0_1_195)">
<path d="M10.1807 4.10614L7.82367 6.46316L9.00218 7.64168L11.3592 5.28465C12.3315 4.31238 13.9225 4.31238 14.8947 5.28465C15.867 6.25692 15.867 7.84792 14.8947 8.82019L12.5377 11.1772L13.7162 12.3557L16.0732 9.9987C17.6996 8.37235 17.6996 5.73249 16.0732 4.10614C14.4469 2.4798 11.807 2.4798 10.1807 4.10614ZM11.3592 12.3557L9.00218 14.7127C8.02991 15.685 6.43892 15.685 5.46665 14.7127C4.49438 13.7405 4.49438 12.1495 5.46665 11.1772L7.82367 8.82019L6.64516 7.64168L4.28814 9.9987C2.66179 11.625 2.66179 14.2649 4.28814 15.8913C5.91448 17.5176 8.55435 17.5176 10.1807 15.8913L12.5377 13.5342L11.3592 12.3557ZM7.23441 11.7665L11.9485 7.05242L13.127 8.23093L8.41293 12.945L7.23441 11.7665Z" fill="#1C4980"/>
</g>
<defs>
<clipPath id="clip0_1_195">
<rect width="20" height="20" fill="white" transform="translate(0.180359)"/>
</clipPath>
</defs>
</svg>
