<svg width="17" height="16" viewBox="0 0 17 16" fill="none" xmlns="http://www.w3.org/2000/svg">
<g clip-path="url(#clip0_1_1089)">
<path d="M8.18063 3.28492L6.29501 5.17054L7.23782 6.11335L9.12344 4.22773C9.90125 3.44991 11.174 3.44991 11.9519 4.22773C12.7297 5.00555 12.7297 6.27834 11.9519 7.05616L10.0662 8.94177L11.0091 9.88458L12.8947 7.99896C14.1957 6.69789 14.1957 4.586 12.8947 3.28492C11.5936 1.98384 9.4817 1.98384 8.18063 3.28492ZM9.12344 9.88458L7.23782 11.7702C6.46 12.548 5.18721 12.548 4.40939 11.7702C3.63157 10.9924 3.63157 9.71959 4.40939 8.94177L6.29501 7.05616L5.3522 6.11335L3.46658 7.99896C2.1655 9.30004 2.1655 11.4119 3.46658 12.713C4.76766 14.0141 6.87955 14.0141 8.18063 12.713L10.0662 10.8274L9.12344 9.88458ZM5.8236 9.41318L9.59484 5.64194L10.5376 6.58475L6.76641 10.356L5.8236 9.41318Z" fill="#1C4980"/>
</g>
<defs>
<clipPath id="clip0_1_1089">
<rect width="16" height="16" fill="white" transform="translate(0.180359)"/>
</clipPath>
</defs>
</svg>
