<svg width="20" height="21" viewBox="0 0 20 21" fill="none" xmlns="http://www.w3.org/2000/svg">
<mask id="mask0_1_217" style="mask-type:alpha" maskUnits="userSpaceOnUse" x="0" y="0" width="20" height="21">
<rect y="0.5" width="20" height="20" fill="#D9D9D9"/>
</mask>
<g mask="url(#mask0_1_217)">
<path d="M6.005 14.495H7.505L12.4108 9.58922L10.9108 8.08922L6.005 12.995V14.495ZM13.1191 8.88089L13.8691 8.13089C13.9802 8.01978 14.0358 7.90172 14.0358 7.77672C14.0358 7.65172 13.9802 7.53367 13.8691 7.42256L13.0775 6.63089C12.9663 6.51978 12.8483 6.46422 12.7233 6.46422C12.5983 6.46422 12.4802 6.51978 12.3691 6.63089L11.6191 7.38089L13.1191 8.88089ZM4.55981 17.6694C4.08429 17.6694 3.67721 17.5001 3.33859 17.1614C2.99995 16.8228 2.83063 16.4157 2.83063 15.9402V5.05978C2.83063 4.58426 2.99995 4.17718 3.33859 3.83855C3.67721 3.49992 4.08429 3.3306 4.55981 3.3306H7.9579C8.09226 2.8934 8.34483 2.5341 8.71561 2.2527C9.08637 1.9713 9.51451 1.8306 10 1.8306C10.4855 1.8306 10.9137 1.9713 11.2844 2.2527C11.6552 2.5341 11.9078 2.8934 12.0421 3.3306H15.4402C15.9158 3.3306 16.3228 3.49992 16.6615 3.83855C17.0001 4.17718 17.1694 4.58426 17.1694 5.05978V15.9402C17.1694 16.4157 17.0001 16.8228 16.6615 17.1614C16.3228 17.5001 15.9158 17.6694 15.4402 17.6694H4.55981ZM4.55981 15.9402H15.4402V5.05978H4.55981V15.9402ZM10 4.53985C10.156 4.53985 10.2849 4.48886 10.3869 4.38689C10.4889 4.28492 10.5399 4.15595 10.5399 3.99999C10.5399 3.84403 10.4889 3.71507 10.3869 3.6131C10.2849 3.51112 10.156 3.46014 10 3.46014C9.84406 3.46014 9.7151 3.51112 9.61313 3.6131C9.51116 3.71507 9.46017 3.84403 9.46017 3.99999C9.46017 4.15595 9.51116 4.28492 9.61313 4.38689C9.7151 4.48886 9.84406 4.53985 10 4.53985Z" fill="#0073E6"/>
</g>
</svg>
