<svg width="20" height="20" viewBox="0 0 20 20" fill="none" xmlns="http://www.w3.org/2000/svg">
<mask id="mask0_1_1392" style="mask-type:alpha" maskUnits="userSpaceOnUse" x="0" y="0" width="20" height="20">
<rect width="20" height="20" fill="#D9D9D9"/>
</mask>
<g mask="url(#mask0_1_1392)">
<path d="M11.6296 12.3007C11.8657 12.3007 12.0636 12.2209 12.2233 12.0611C12.3831 11.9014 12.4629 11.7035 12.4629 11.4674C12.4629 11.2313 12.3831 11.0334 12.2233 10.8736C12.0636 10.7139 11.8657 10.634 11.6296 10.634C11.3935 10.634 11.1956 10.7139 11.0358 10.8736C10.8761 11.0334 10.7963 11.2313 10.7963 11.4674C10.7963 11.7035 10.8761 11.9014 11.0358 12.0611C11.1956 12.2209 11.3935 12.3007 11.6296 12.3007ZM11.0254 9.84373H12.2338C12.2338 9.48082 12.2675 9.20923 12.335 9.02896C12.4024 8.84871 12.5512 8.6505 12.7813 8.43432C13.0696 8.15986 13.3292 7.88208 13.5601 7.60098C13.7909 7.31989 13.9063 6.96738 13.9063 6.54346C13.9063 5.91182 13.6961 5.40669 13.2756 5.02807C12.8551 4.64944 12.3013 4.46013 11.6141 4.46013C11.0833 4.46013 10.6096 4.6086 10.193 4.90554C9.77632 5.2025 9.48631 5.61047 9.32296 6.12944L10.4063 6.58015C10.5002 6.26734 10.6548 6.02677 10.8701 5.85844C11.0853 5.69012 11.3334 5.60596 11.6142 5.60596C11.9388 5.60596 12.2006 5.69541 12.3995 5.87429C12.5985 6.0532 12.698 6.28516 12.698 6.57019C12.698 6.86345 12.5903 7.11844 12.375 7.33515C12.1598 7.55186 11.9341 7.77241 11.698 7.99682C11.4123 8.2613 11.2288 8.51145 11.1475 8.74727C11.0661 8.98308 11.0254 9.34857 11.0254 9.84373ZM6.67442 15.0548C6.19549 15.0548 5.78756 14.8863 5.45063 14.5494C5.11371 14.2125 4.94525 13.8045 4.94525 13.3256V3.44519C4.94525 2.96626 5.11371 2.55833 5.45063 2.2214C5.78756 1.88447 6.19549 1.716 6.67442 1.716H16.5548C17.0338 1.716 17.4417 1.88447 17.7786 2.2214C18.1156 2.55833 18.284 2.96626 18.284 3.44519V13.3256C18.284 13.8045 18.1156 14.2125 17.7786 14.5494C17.4417 14.8863 17.0338 15.0548 16.5548 15.0548H6.67442ZM6.67442 13.3256H16.5548V3.44519H6.67442V13.3256ZM3.44525 18.2839C2.96632 18.2839 2.55839 18.1155 2.22146 17.7786C1.88453 17.4416 1.71606 17.0337 1.71606 16.5548V4.94519H3.44525V16.5548H15.0548V18.2839H3.44525Z" fill="#1C4980"/>
</g>
</svg>
