<svg width="20" height="21" viewBox="0 0 20 21" fill="none" xmlns="http://www.w3.org/2000/svg">
<mask id="mask0_1_223" style="mask-type:alpha" maskUnits="userSpaceOnUse" x="0" y="0" width="20" height="21">
<rect y="0.5" width="20" height="20" fill="#D9D9D9"/>
</mask>
<g mask="url(#mask0_1_223)">
<path d="M11.6295 12.8007C11.8656 12.8007 12.0636 12.7209 12.2233 12.5612C12.383 12.4014 12.4629 12.2035 12.4629 11.9674C12.4629 11.7313 12.383 11.5334 12.2233 11.3737C12.0636 11.2139 11.8656 11.1341 11.6295 11.1341C11.3934 11.1341 11.1955 11.2139 11.0358 11.3737C10.8761 11.5334 10.7962 11.7313 10.7962 11.9674C10.7962 12.2035 10.8761 12.4014 11.0358 12.5612C11.1955 12.7209 11.3934 12.8007 11.6295 12.8007ZM11.0254 10.3438H12.2337C12.2337 9.98085 12.2674 9.70926 12.3349 9.52899C12.4024 9.34874 12.5512 9.15053 12.7812 8.93435C13.0696 8.65989 13.3292 8.38211 13.56 8.10101C13.7908 7.81992 13.9062 7.46741 13.9062 7.04349C13.9062 6.41185 13.696 5.90672 13.2755 5.5281C12.855 5.14947 12.3012 4.96016 11.614 4.96016C11.0833 4.96016 10.6096 5.10863 10.1929 5.40557C9.77625 5.70253 9.48625 6.1105 9.3229 6.62947L10.4062 7.08018C10.5001 6.76737 10.6547 6.5268 10.87 6.35847C11.0853 6.19015 11.3333 6.10599 11.6141 6.10599C11.9387 6.10599 12.2005 6.19544 12.3995 6.37432C12.5984 6.55323 12.6979 6.78519 12.6979 7.07022C12.6979 7.36348 12.5903 7.61847 12.375 7.83518C12.1597 8.05189 11.934 8.27244 11.6979 8.49685C11.4123 8.76133 11.2288 9.01148 11.1474 9.2473C11.066 9.48311 11.0254 9.8486 11.0254 10.3438ZM6.67436 15.5548C6.19543 15.5548 5.7875 15.3863 5.45057 15.0494C5.11365 14.7125 4.94519 14.3046 4.94519 13.8256V3.94522C4.94519 3.46629 5.11365 3.05836 5.45057 2.72143C5.7875 2.3845 6.19543 2.21603 6.67436 2.21603H16.5548C17.0337 2.21603 17.4416 2.3845 17.7786 2.72143C18.1155 3.05836 18.284 3.46629 18.284 3.94522V13.8256C18.284 14.3046 18.1155 14.7125 17.7786 15.0494C17.4416 15.3863 17.0337 15.5548 16.5548 15.5548H6.67436ZM6.67436 13.8256H16.5548V3.94522H6.67436V13.8256ZM3.44519 18.784C2.96626 18.784 2.55833 18.6155 2.2214 18.2786C1.88447 17.9417 1.716 17.5337 1.716 17.0548V5.44522H3.44519V17.0548H15.0548V18.784H3.44519Z" fill="#1C4980"/>
</g>
</svg>
