<svg width="17" height="10" viewBox="0 0 17 10" fill="none" xmlns="http://www.w3.org/2000/svg">
<path fill-rule="evenodd" clip-rule="evenodd" d="M15.4448 0.111084H14.533C14.0295 0.111084 13.6213 0.52149 13.6213 1.02775V8.97222C13.6213 9.4785 14.0295 9.88889 14.533 9.88889H15.4448C15.9484 9.88889 16.3566 9.4785 16.3566 8.97222V1.02775C16.3566 0.52149 15.9484 0.111084 15.4448 0.111084ZM10.2781 2.24998H11.1899C11.6934 2.24998 12.1016 2.66038 12.1016 3.16664V8.97222C12.1016 9.4785 11.6934 9.88889 11.1899 9.88889H10.2781C9.77454 9.88889 9.36635 9.4785 9.36635 8.97222V3.16664C9.36635 2.66038 9.77454 2.24998 10.2781 2.24998ZM6.935 4.38886H6.02323C5.51968 4.38886 5.11147 4.79927 5.11147 5.30553V8.97222C5.11147 9.4785 5.51968 9.88889 6.02323 9.88889H6.935C7.43855 9.88889 7.84676 9.4785 7.84676 8.97222V5.30553C7.84676 4.79927 7.43855 4.38886 6.935 4.38886ZM2.68009 6.22219H1.76833C1.26478 6.22219 0.856567 6.6326 0.856567 7.13886V8.97222C0.856567 9.4785 1.26478 9.88889 1.76833 9.88889H2.68009C3.18365 9.88889 3.59186 9.4785 3.59186 8.97222V7.13886C3.59186 6.6326 3.18365 6.22219 2.68009 6.22219Z" fill="black"/>
</svg>
