<svg width="15" height="12" viewBox="0 0 15 12" fill="none" xmlns="http://www.w3.org/2000/svg">
<path fill-rule="evenodd" clip-rule="evenodd" d="M7.31936 3.06167C9.33965 3.06176 11.2828 3.84224 12.7471 5.24181C12.8573 5.34986 13.0336 5.34849 13.1422 5.23875L14.1962 4.16931C14.2511 4.11364 14.2818 4.03825 14.2813 3.9598C14.2809 3.88135 14.2493 3.80632 14.1937 3.75131C10.3505 0.048391 4.28747 0.048391 0.444287 3.75131C0.38867 3.80628 0.35703 3.88129 0.356575 3.95973C0.356028 4.03818 0.386663 4.11361 0.441552 4.16931L1.49592 5.23875C1.60442 5.34867 1.78075 5.35002 1.89098 5.24181C3.35537 3.84215 5.29871 3.06167 7.31936 3.06167ZM7.31936 6.54103C8.42934 6.54097 9.49984 6.95579 10.3227 7.70489C10.4339 7.81121 10.6093 7.8089 10.7178 7.6997L11.7706 6.63025C11.826 6.57416 11.8568 6.49806 11.8559 6.41899C11.8551 6.3399 11.8228 6.26445 11.7663 6.2095C9.2606 3.86615 5.38022 3.86615 2.8745 6.2095C2.81788 6.26445 2.78561 6.33994 2.78479 6.41905C2.78406 6.49815 2.81497 6.57424 2.87049 6.63025L3.92303 7.6997C4.03144 7.8089 4.20678 7.81121 4.3181 7.70489C5.14042 6.95628 6.21001 6.54149 7.31936 6.54103ZM9.42818 8.88203C9.42982 8.96133 9.39882 9.03778 9.34256 9.09333L7.5214 10.9411C7.46807 10.9953 7.39522 11.0259 7.31936 11.0259C7.24341 11.0259 7.17056 10.9953 7.11722 10.9411L5.29579 9.09333C5.23953 9.03774 5.20862 8.96126 5.21026 8.88197C5.21191 8.80267 5.2461 8.72757 5.30463 8.67442C6.46768 7.68544 8.17095 7.68544 9.33399 8.67442C9.39253 8.72762 9.42663 8.80273 9.42818 8.88203Z" fill="black"/>
</svg>
